<svg width="120" height="29" viewBox="0 0 120 29" fill="none" xmlns="http://www.w3.org/2000/svg">
<path d="M49.608 5.54545H52.7443V17.8182C52.7386 18.9432 52.5 19.9119 52.0284 20.7244C51.5568 21.5312 50.8977 22.1534 50.0511 22.5909C49.2102 23.0227 48.2301 23.2386 47.1108 23.2386C46.0881 23.2386 45.1676 23.0568 44.3494 22.6932C43.5369 22.3239 42.892 21.7784 42.4148 21.0568C41.9375 20.3352 41.6989 19.4375 41.6989 18.3636H44.8438C44.8494 18.8352 44.9517 19.2415 45.1506 19.5824C45.3551 19.9233 45.6364 20.1847 45.9943 20.3665C46.3523 20.5483 46.7642 20.6392 47.2301 20.6392C47.7358 20.6392 48.1648 20.5341 48.517 20.3239C48.8693 20.108 49.1364 19.7898 49.3182 19.3693C49.5057 18.9489 49.6023 18.4318 49.608 17.8182V5.54545ZM63.4286 23.2557C62.1502 23.2557 61.0422 22.9744 60.1047 22.4119C59.1672 21.8494 58.4399 21.0625 57.9229 20.0511C57.4115 19.0398 57.1559 17.858 57.1559 16.5057C57.1559 15.1534 57.4115 13.9687 57.9229 12.9517C58.4399 11.9347 59.1672 11.1449 60.1047 10.5824C61.0422 10.0199 62.1502 9.73864 63.4286 9.73864C64.707 9.73864 65.8149 10.0199 66.7524 10.5824C67.6899 11.1449 68.4144 11.9347 68.9257 12.9517C69.4428 13.9687 69.7013 15.1534 69.7013 16.5057C69.7013 17.858 69.4428 19.0398 68.9257 20.0511C68.4144 21.0625 67.6899 21.8494 66.7524 22.4119C65.8149 22.9744 64.707 23.2557 63.4286 23.2557ZM63.4456 20.7841C64.1388 20.7841 64.7184 20.5937 65.1843 20.2131C65.6502 19.8267 65.9968 19.3097 66.224 18.6619C66.457 18.0142 66.5735 17.2926 66.5735 16.4972C66.5735 15.696 66.457 14.9716 66.224 14.3239C65.9968 13.6705 65.6502 13.1506 65.1843 12.7642C64.7184 12.3778 64.1388 12.1847 63.4456 12.1847C62.7354 12.1847 62.1445 12.3778 61.6729 12.7642C61.207 13.1506 60.8576 13.6705 60.6246 14.3239C60.3973 14.9716 60.2837 15.696 60.2837 16.4972C60.2837 17.2926 60.3973 18.0142 60.6246 18.6619C60.8576 19.3097 61.207 19.8267 61.6729 20.2131C62.1445 20.5937 62.7354 20.7841 63.4456 20.7841ZM74.1363 23V5.54545H77.2215V12.0739H77.3493C77.5084 11.7557 77.7329 11.4176 78.0226 11.0597C78.3124 10.696 78.7045 10.3864 79.1988 10.1307C79.6931 9.86932 80.3238 9.73864 81.0908 9.73864C82.1022 9.73864 83.0141 9.99716 83.8266 10.5142C84.6448 11.0256 85.2925 11.7841 85.7698 12.7898C86.2528 13.7898 86.4942 15.017 86.4942 16.4716C86.4942 17.9091 86.2584 19.1307 85.7868 20.1364C85.3153 21.142 84.6732 21.9091 83.8607 22.4375C83.0482 22.9659 82.1278 23.2301 81.0993 23.2301C80.3493 23.2301 79.7272 23.1051 79.2329 22.8551C78.7386 22.6051 78.3408 22.304 78.0397 21.9517C77.7442 21.5937 77.5141 21.2557 77.3493 20.9375H77.1704V23H74.1363ZM77.1618 16.4545C77.1618 17.3011 77.2812 18.0426 77.5198 18.679C77.7641 19.3153 78.1136 19.8125 78.5681 20.1705C79.0283 20.5227 79.5851 20.6989 80.2386 20.6989C80.9204 20.6989 81.4914 20.517 81.9516 20.1534C82.4118 19.7841 82.7584 19.2812 82.9914 18.6449C83.23 18.0028 83.3493 17.2727 83.3493 16.4545C83.3493 15.642 83.2329 14.9205 82.9999 14.2898C82.767 13.6591 82.4204 13.1648 81.9601 12.8068C81.4999 12.4489 80.9261 12.2699 80.2386 12.2699C79.5795 12.2699 79.0198 12.4432 78.5596 12.7898C78.0993 13.1364 77.7499 13.6222 77.5113 14.2472C77.2783 14.8722 77.1618 15.608 77.1618 16.4545ZM90.7971 23V9.90909H93.8823V23H90.7971ZM92.3482 8.05114C91.8596 8.05114 91.4391 7.8892 91.0869 7.56534C90.7346 7.23579 90.5585 6.84091 90.5585 6.38068C90.5585 5.91477 90.7346 5.51989 91.0869 5.19602C91.4391 4.86648 91.8596 4.7017 92.3482 4.7017C92.8426 4.7017 93.263 4.86648 93.6096 5.19602C93.9619 5.51989 94.138 5.91477 94.138 6.38068C94.138 6.84091 93.9619 7.23579 93.6096 7.56534C93.263 7.8892 92.8426 8.05114 92.3482 8.05114ZM105.272 9.90909V12.2955H97.7463V9.90909H105.272ZM99.6042 6.77273H102.689V19.0625C102.689 19.4773 102.752 19.7955 102.877 20.017C103.008 20.233 103.178 20.3807 103.388 20.4602C103.599 20.5398 103.832 20.5795 104.087 20.5795C104.28 20.5795 104.457 20.5653 104.616 20.5369C104.78 20.5085 104.905 20.483 104.991 20.4602L105.51 22.8722C105.346 22.929 105.11 22.9915 104.803 23.0597C104.502 23.1278 104.133 23.1676 103.695 23.179C102.922 23.2017 102.226 23.0852 101.607 22.8295C100.988 22.5682 100.496 22.1648 100.133 21.6193C99.7747 21.0739 99.5986 20.392 99.6042 19.5739V6.77273Z" fill="#2CB1BC"/>
<rect width="35" height="29" rx="4" fill="#2CB1BC"/>
<path d="M19.608 5.54545H22.7443V17.8182C22.7386 18.9432 22.5 19.9119 22.0284 20.7244C21.5568 21.5312 20.8977 22.1534 20.0511 22.5909C19.2102 23.0227 18.2301 23.2386 17.1108 23.2386C16.0881 23.2386 15.1676 23.0568 14.3494 22.6932C13.5369 22.3239 12.892 21.7784 12.4148 21.0568C11.9375 20.3352 11.6989 19.4375 11.6989 18.3636H14.8438C14.8494 18.8352 14.9517 19.2415 15.1506 19.5824C15.3551 19.9233 15.6364 20.1847 15.9943 20.3665C16.3523 20.5483 16.7642 20.6392 17.2301 20.6392C17.7358 20.6392 18.1648 20.5341 18.517 20.3239C18.8693 20.108 19.1364 19.7898 19.3182 19.3693C19.5057 18.9489 19.6023 18.4318 19.608 17.8182V5.54545Z" fill="white"/>
</svg>
